<?xml version="1.0" standalone="no"?><!DOCTYPE svg PUBLIC "-//W3C//DTD SVG 1.1//EN" "http://www.w3.org/Graphics/SVG/1.1/DTD/svg11.dtd"><svg t="1593830923720" class="icon" viewBox="0 0 1024 1024" version="1.1" xmlns="http://www.w3.org/2000/svg" p-id="1671" xmlns:xlink="http://www.w3.org/1999/xlink" width="200" height="200"><defs><style type="text/css"></style></defs><path d="M346.774588 209.197176a131.915294 131.915294 0 1 1 0 263.710118 131.915294 131.915294 0 0 1 0-263.710118z m0 60.235295a71.68 71.68 0 1 0 0 143.239529 71.68 71.68 0 0 0 0-143.239529zM595.004235 269.432471h150.588236a30.117647 30.117647 0 1 0 0-60.235295h-150.588236a30.117647 30.117647 0 1 0 0 60.235295zM595.004235 448.512h150.588236a30.117647 30.117647 0 1 0 0-60.235294h-150.588236a30.117647 30.117647 0 1 0 0 60.235294zM249.374118 647.951059l496.459294-4.096a30.117647 30.117647 0 0 0-0.481883-60.235294l-496.519529 4.096a30.117647 30.117647 0 0 0 0.481882 60.235294zM249.374118 824.982588l496.459294-4.096a30.117647 30.117647 0 0 0-0.481883-60.235294l-496.519529 4.096a30.117647 30.117647 0 0 0 0.481882 60.235294z" p-id="1672"></path><path d="M783.902118 30.117647a150.588235 150.588235 0 0 1 150.588235 150.588235v662.588236a150.588235 150.588235 0 0 1-150.588235 150.588235H210.823529A150.588235 150.588235 0 0 1 60.235294 843.294118V180.705882A150.588235 150.588235 0 0 1 210.823529 30.117647h573.078589z m0 60.235294H210.823529A90.352941 90.352941 0 0 0 120.470588 180.705882v662.588236A90.352941 90.352941 0 0 0 210.823529 933.647059h573.078589a90.352941 90.352941 0 0 0 90.352941-90.352941V180.705882a90.352941 90.352941 0 0 0-90.352941-90.352941z" p-id="1673"></path></svg>